<?xml version="1.0" encoding="UTF-8"?>
<svg version="1.1" xmlns="http://www.w3.org/2000/svg" width="500" height="500">
<path d="M0 0 C165 0 330 0 500 0 C500 165 500 330 500 500 C335 500 170 500 0 500 C0 335 0 170 0 0 Z " fill="#FEFEFE" transform="translate(0,0)"/>
<path d="M0 0 C14.52 0 29.04 0 44 0 C44 0.66 44 1.32 44 2 C43.42894531 2.11214844 42.85789062 2.22429687 42.26953125 2.33984375 C30.48893279 5.20539473 21.39398152 13.20640907 12.86962891 21.45703125 C10.56129967 23.67814805 9.08924849 24.9702505 6 26 C5.71382813 26.58136719 5.42765625 27.16273438 5.1328125 27.76171875 C3.58451631 30.82093847 1.43823528 32.53911285 -1.125 34.8125 C-2.20802733 35.78274345 -3.29000117 36.75416372 -4.37109375 37.7265625 C-4.95358887 38.24895508 -5.53608398 38.77134766 -6.13623047 39.30957031 C-9.53070034 42.38833759 -12.85377424 45.54328836 -16.1875 48.6875 C-21.71251359 53.88558971 -27.27461965 59.02209986 -33 64 C-32.12484331 68.52673577 -29.49800128 71.21042207 -26.5 74.5625 C-25.40261425 75.81420051 -24.30627041 77.0668152 -23.2109375 78.3203125 C-22.66663086 78.94067383 -22.12232422 79.56103516 -21.56152344 80.20019531 C-19.36081945 82.73671654 -17.24130174 85.33004291 -15.125 87.9375 C-11.81263781 92.0161099 -8.44108739 96.02951455 -5 100 C-6.55701931 104.67105792 -9.08447373 108.08705685 -12 112 C-15.65319248 108.43896012 -19.03617023 104.72491949 -22.3125 100.8125 C-22.79106445 100.24370117 -23.26962891 99.67490234 -23.76269531 99.08886719 C-30.36793083 91.21118497 -36.71349006 83.13317223 -43 75 C-49.74006656 78.02366875 -56.22730075 82.53394786 -60 89 C-62.17347132 96.65388893 -61.35758554 104.83321762 -61 112.6875 C-60.96043618 114.8208653 -60.92653843 116.95434355 -60.8984375 119.08789062 C-60.917865 132.42101446 -60.917865 132.42101446 -57 145 C-53.55549263 147.29633824 -51.06187717 147.54016485 -47 148 C-47 148.66 -47 149.32 -47 150 C-60.2 150 -73.4 150 -87 150 C-87 149.34 -87 148.68 -87 148 C-85.783125 147.835 -84.56625 147.67 -83.3125 147.5 C-79.80864635 146.60326509 -78.23192058 145.6025426 -76.25048828 142.56958008 C-73.33374137 137.53662824 -73.4493644 133.07314074 -73.6796875 127.38671875 C-73.702239 125.31186692 -73.72301308 123.23699516 -73.7421875 121.16210938 C-73.79965709 117.94064644 -73.87384108 114.72186992 -73.98242188 111.50170898 C-74.46370254 95.61085284 -72.34559831 83.61133927 -62 71 C-61.67 71 -61.34 71 -61 71 C-60.505 77.93 -60.505 77.93 -60 85 C-58.40671875 83.49759766 -58.40671875 83.49759766 -56.78125 81.96484375 C-55.35423507 80.62232312 -53.92714786 79.27987932 -52.5 77.9375 C-51.80390625 77.28072266 -51.1078125 76.62394531 -50.390625 75.94726562 C-46.31935178 72.12102274 -42.18339481 68.39345534 -37.96484375 64.73071289 C-34.65406762 61.81444898 -31.45550659 58.78093552 -28.25 55.75 C-23.47443292 51.24889079 -18.6765089 46.78038389 -13.8125 42.375 C3.01383689 28.30287247 3.01383689 28.30287247 11.25 8.98046875 C11.15313678 6.92212919 11.15313678 6.92212919 9.76171875 5.3125 C7.76504812 3.82495824 6.23762834 3.32933063 3.8125 2.8125 C2.554375 2.544375 1.29625 2.27625 0 2 C0 1.34 0 0.68 0 0 Z " fill="#070707" transform="translate(298,173)"/>
<path d="M0 0 C1.051875 0.1546875 1.051875 0.1546875 2.125 0.3125 C2.125 0.9725 2.125 1.6325 2.125 2.3125 C1.09375 2.828125 0.0625 3.34375 -1 3.875 C-11.75578636 10.0860879 -17.04271762 23.27853551 -22.0625 34.0625 C-23.02473103 36.09567288 -23.98830762 38.12820941 -24.953125 40.16015625 C-25.43845703 41.18383301 -25.92378906 42.20750977 -26.42382812 43.26220703 C-38.20746923 68.03084969 -51.41715153 91.08725456 -68.875 112.3125 C-69.69871094 113.32183594 -70.52242187 114.33117187 -71.37109375 115.37109375 C-73.53523092 118.02140213 -75.70336569 120.66833415 -77.875 123.3125 C-76.92625 123.56 -75.9775 123.8075 -75 124.0625 C-71.92635923 124.93449869 -69.01558906 126.0323756 -66.0625 127.25 C-61.09122558 129.28890978 -56.04464446 130.86059985 -50.875 132.3125 C-50.875 133.3025 -50.875 134.2925 -50.875 135.3125 C-57.01290143 134.78237086 -61.96053886 132.80226051 -67.5625 130.3125 C-69.23194646 129.58075795 -70.90248266 128.85149594 -72.57421875 128.125 C-73.30471436 127.80144531 -74.03520996 127.47789062 -74.7878418 127.14453125 C-76.82201897 126.33362052 -78.71684672 125.68861805 -80.875 125.3125 C-82.60253964 126.36337625 -82.60253964 126.36337625 -84.125 128 C-89.28699153 132.70168655 -93.96123645 135.49642002 -101.0625 135.8125 C-104.37134159 135.65469371 -105.91891795 135.29009288 -108.9375 133.75 C-111.53426639 130.48310035 -112.02117199 128.47840159 -111.875 124.3125 C-109.12882328 120.87977911 -106.04965646 117.59111655 -101.52734375 117.01171875 C-95.57120408 116.98600879 -90.59822961 117.68227663 -84.96875 119.65625 C-82.76358459 120.46204291 -82.76358459 120.46204291 -79.875 120.3125 C-78.19047562 118.3899786 -76.75766052 116.53153111 -75.3125 114.4375 C-74.87558838 113.81254639 -74.43867676 113.18759277 -73.98852539 112.54370117 C-66.26020128 101.24803247 -60.15125783 89.10359165 -54.40991211 76.70922852 C-43.57179519 53.53393037 -30.56339741 30.92088803 -14.125 11.25 C-13.68945801 10.72583496 -13.25391602 10.20166992 -12.80517578 9.66162109 C-5.01597153 0.5452143 -5.01597153 0.5452143 0 0 Z " fill="#0D0D0D" transform="translate(272.875,177.6875)"/>
<path d="M0 0 C0.99 0.33 1.98 0.66 3 1 C4.16882903 3.52502761 5.14552547 5.9475982 6.0625 8.5625 C6.31837891 9.25408203 6.57425781 9.94566406 6.83789062 10.65820312 C14.12268154 30.75224078 12.13061713 50.12878649 3.19311523 69.31542969 C-6.85189668 89.88831643 -22.06692914 104.22549047 -43.875 111.8125 C-50.64617144 113.87171135 -56.96544119 114.12512061 -64 114 C-64.33 113.34 -64.66 112.68 -65 112 C-64.175 111.87625 -63.35 111.7525 -62.5 111.625 C-46.39834391 108.74970427 -34.25180992 101.71847485 -23 90 C-22.33613281 89.33226562 -21.67226563 88.66453125 -20.98828125 87.9765625 C-8.45019085 74.62138306 2.31085058 53.5496052 3 35 C3.07734375 33.31777344 3.07734375 33.31777344 3.15625 31.6015625 C3.37778187 22.64798263 2.16036669 14.66385397 0 6 C-0.38535105 4.34458662 -0.73631544 2.6790948 -1 1 C-0.67 0.67 -0.34 0.34 0 0 Z " fill="#0E0E0E" transform="translate(305,201)"/>
<path d="M0 0 C0.33 0 0.66 0 1 0 C1.00879936 1.19150917 1.00879936 1.19150917 1.01777649 2.40708923 C1.0758866 9.92444244 1.14806668 17.4414711 1.23571491 24.95853329 C1.28027942 28.82235023 1.31956529 32.68606511 1.34643555 36.55004883 C1.37260865 40.28500484 1.41310746 44.01956512 1.46318626 47.75427437 C1.47976099 49.17303068 1.49133339 50.59185528 1.49761391 52.0106945 C1.3677433 63.38866114 1.3677433 63.38866114 5 74 C8.44450737 76.29633824 10.93812283 76.54016485 15 77 C15 77.66 15 78.32 15 79 C1.8 79 -11.4 79 -25 79 C-25 78.34 -25 77.68 -25 77 C-23.783125 76.835 -22.56625 76.67 -21.3125 76.5 C-17.80864635 75.60326509 -16.23192058 74.6025426 -14.25048828 71.56958008 C-11.33374137 66.53662824 -11.4493644 62.07314074 -11.6796875 56.38671875 C-11.702239 54.31186692 -11.72301308 52.23699516 -11.7421875 50.16210938 C-11.79965709 46.94064644 -11.87384108 43.72186992 -11.98242188 40.50170898 C-12.46370254 24.61085284 -10.34559831 12.61133927 0 0 Z " fill="#030303" transform="translate(236,244)"/>
<path d="M0 0 C6.40212967 5.37190191 13.01033259 11.16288994 17.0625 18.5625 C17.0625 19.5525 17.0625 20.5425 17.0625 21.5625 C16.4025 21.5625 15.7425 21.5625 15.0625 21.5625 C13.81750413 19.93833273 12.64207531 18.26061602 11.5 16.5625 C2.30989939 3.69965309 -10.82375895 -4.92951095 -25.9375 -9.4375 C-26.81148438 -9.73527344 -27.68546875 -10.03304687 -28.5859375 -10.33984375 C-49.17974748 -16.59874678 -73.88488082 -12.13111282 -92.953125 -2.9921875 C-95.39258815 -1.5883455 -97.66076047 -0.09113187 -99.9375 1.5625 C-100.77539062 2.15804687 -101.61328125 2.75359375 -102.4765625 3.3671875 C-115.16307618 12.91081863 -124.51713149 26.69618419 -126.9375 42.5625 C-127.23453496 45.83956324 -127.31887892 49.08539323 -127.3125 52.375 C-127.31088867 53.24721191 -127.30927734 54.11942383 -127.30761719 55.01806641 C-127.12425273 64.71660795 -124.74051975 72.75843896 -118.9375 80.5625 C-118.6075 81.5525 -118.2775 82.5425 -117.9375 83.5625 C-116.13817421 84.62966704 -116.13817421 84.62966704 -113.9375 85.5625 C-113.174375 86.0575 -112.41125 86.5525 -111.625 87.0625 C-104.37095856 91.11126731 -96.28996079 91.79348807 -88.25390625 89.9453125 C-80.61580808 87.31789974 -76.26146119 82.81806529 -72.43359375 75.80859375 C-67.1447485 64.73366138 -66.35859194 54.04045317 -70.28125 42.36328125 C-70.4978125 41.76902344 -70.714375 41.17476562 -70.9375 40.5625 C-68.31580096 41.52378965 -67.14719705 42.20834498 -65.70703125 44.640625 C-64.67195897 48.57074716 -64.59576718 52.26333742 -64.625 56.3125 C-64.63063965 57.11945313 -64.6362793 57.92640625 -64.64208984 58.7578125 C-64.75950983 64.50557884 -65.26634681 69.39090641 -67.9375 74.5625 C-68.36289063 75.40167969 -68.78828125 76.24085938 -69.2265625 77.10546875 C-74.10227236 85.93128579 -79.47725049 90.72315372 -89.10546875 93.87109375 C-98.15699624 96.08091494 -105.9041809 94.23324075 -114 89.9375 C-123.15431266 82.53614083 -129.1824741 73.37382428 -130.9375 61.5625 C-132.25869142 41.35476895 -127.68358216 24.78025169 -114.34765625 9.12890625 C-85.68176865 -21.39538573 -33.26218206 -24.83114285 0 0 Z " fill="#222222" transform="translate(284.9375,174.4375)"/>
<path d="M0 0 C0.99 0.33 1.98 0.66 3 1 C3.495 8.425 3.495 8.425 4 16 C3.01 16.495 3.01 16.495 2 17 C1.67 12.71 1.34 8.42 1 4 C-9.3297986 17.64703931 -10.34807422 29.03706898 -9.9375 45.8125 C-9.89629652 49.08106863 -9.86938799 52.34903927 -9.85731506 55.61784363 C-9.84591466 57.63360444 -9.8157238 59.64937195 -9.7641449 61.664505 C-9.75166214 62.57032822 -9.73917938 63.47615143 -9.72631836 64.40942383 C-9.70725937 65.20198074 -9.68820038 65.99453766 -9.66856384 66.81111145 C-10.08325563 69.54984133 -11.20941995 70.931463 -13 73 C-13.66 72.34 -14.32 71.68 -15 71 C-14.34 71 -13.68 71 -13 71 C-13 70.01 -13 69.02 -13 68 C-14.19625 67.896875 -15.3925 67.79375 -16.625 67.6875 C-20.61280306 67.34372387 -23.45958987 65.82278541 -27 64 C-29.28113309 63.07767398 -31.57306166 62.18159917 -33.875 61.3125 C-35.02742187 60.87550781 -36.17984375 60.43851562 -37.3671875 59.98828125 C-38.23601562 59.66214844 -39.10484375 59.33601563 -40 59 C-38.54562723 55.67358844 -36.70099367 53.47709549 -34.1875 50.875 C-20.33543838 35.69100938 -10.11361536 17.7761663 0 0 Z " fill="#F8F8F8" transform="translate(235,242)"/>
<path d="M0 0 C13.2 0 26.4 0 40 0 C40 0.66 40 1.32 40 2 C39.38511719 2.09796875 38.77023438 2.1959375 38.13671875 2.296875 C33.12003138 3.12990894 33.12003138 3.12990894 29 5.875 C26.91405672 10.30762946 26.9200639 14.16452765 27 19.046875 C27.18095712 50.66133964 27.18095712 50.66133964 15.36083984 62.66455078 C14.9117627 63.10524902 14.46268555 63.54594727 14 64 C13.98786972 63.04612648 13.98786972 63.04612648 13.97549438 62.07298279 C13.88925119 55.43769777 13.78973921 48.80270471 13.68261719 42.16772461 C13.64440008 39.69349074 13.60953467 37.21920269 13.578125 34.74487305 C13.53231697 31.18258335 13.47434758 27.62066431 13.4140625 24.05859375 C13.40251129 22.95728622 13.39096008 21.8559787 13.37905884 20.72129822 C13.27261781 15.14711708 13.0539976 10.21866538 11 5 C7.60521842 2.92541126 3.9105114 2.54565275 0 2 C0 1.34 0 0.68 0 0 Z " fill="#030303" transform="translate(211,173)"/>
<path d="M0 0 C3.52426645 1.45298704 5.2183007 3.22774917 7.5 6.25 C20.6718504 24.99904797 20.6718504 24.99904797 39.5625 35.5 C41.37176074 35.69877022 43.18400793 35.87709021 45 36 C45 36.66 45 37.32 45 38 C28.5 38 12 38 -5 38 C-5 37.34 -5 36.68 -5 36 C-2.98177083 35.54427083 -0.96354167 35.08854167 1.0546875 34.6328125 C3.20719964 34.09525572 3.20719964 34.09525572 5 32 C5.55032242 28.13139687 5.29394631 26.44985494 3.13671875 23.1484375 C2.32847656 22.23320312 1.52023437 21.31796875 0.6875 20.375 C-0.11300781 19.45460938 -0.91351563 18.53421875 -1.73828125 17.5859375 C-3.10482046 16.02350407 -4.47589245 14.4649967 -5.85546875 12.9140625 C-7 11 -7 11 -6.87890625 8.984375 C-5.85959445 6.68299547 -4.62352284 5.11538697 -2.9375 3.25 C-2.38964844 2.63640625 -1.84179688 2.0228125 -1.27734375 1.390625 C-0.85582031 0.93171875 -0.43429687 0.4728125 0 0 Z " fill="#090909" transform="translate(301,285)"/>
<path d="M0 0 C14.52 0 29.04 0 44 0 C44 0.66 44 1.32 44 2 C43.14341797 2.16822266 43.14341797 2.16822266 42.26953125 2.33984375 C30.53310043 5.19465125 21.45434713 13.14984056 12.95751953 21.36914062 C10.45902224 23.77258165 8.22305798 25.67285848 5 27 C5.39027181 23.68268964 6.00508487 21.9930083 8 19.25 C10.40387181 15.34370831 11.48335085 11.61380357 11 7 C9.00194004 4.25582905 7.07090087 3.5069133 3.8125 2.8125 C2.554375 2.544375 1.29625 2.27625 0 2 C0 1.34 0 0.68 0 0 Z " fill="#090909" transform="translate(298,173)"/>
<path d="M0 0 C1.32 0 2.64 0 4 0 C5.67552161 3.87641216 7.34776828 7.75421599 9.01708984 11.63330078 C9.58456672 12.95073855 10.15291236 14.26780248 10.72216797 15.58447266 C11.54367108 17.48500788 12.36196521 19.386898 13.1796875 21.2890625 C13.91807861 23.00150146 13.91807861 23.00150146 14.67138672 24.74853516 C15.91839583 27.80029321 16.99782256 30.86039848 18 34 C16.68 34 15.36 34 14 34 C13.32880451 32.5437455 12.66318193 31.08492133 12 29.625 C11.62875 28.81289063 11.2575 28.00078125 10.875 27.1640625 C10 25 10 25 10 23 C4.72 23 -0.56 23 -6 23 C-6.33 24.65 -6.66 26.3 -7 28 C-7.95394836 30.02237052 -8.94535351 32.0282696 -10 34 C-10.99 34 -11.98 34 -13 34 C-10.87555401 26.18300191 -7.9836327 18.82105482 -4.8125 11.375 C-4.34908203 10.27542969 -3.88566406 9.17585938 -3.40820312 8.04296875 C-2.27669493 5.36001117 -1.14056098 2.67911856 0 0 Z " fill="#111111" transform="translate(309,362)"/>
<path d="M0 0 C3.625 1.5 3.625 1.5 6 3 C5.67 3.99 5.34 4.98 5 6 C4.18402344 5.51273437 4.18402344 5.51273437 3.3515625 5.015625 C0.53962719 3.80116789 -1.5710622 3.73353672 -4.625 3.75 C-5.58664063 3.74484375 -6.54828125 3.7396875 -7.5390625 3.734375 C-10.17697348 3.75887912 -10.17697348 3.75887912 -12 6 C-12.16681109 9.08347826 -12.16681109 9.08347826 -12 12 C-11.443125 12.18175781 -10.88625 12.36351562 -10.3125 12.55078125 C-8.71413569 13.07726949 -7.11789857 13.61024401 -5.5234375 14.1484375 C-3.92853637 14.68665491 -2.32993839 15.2141434 -0.7265625 15.7265625 C2.25660995 16.7357398 4.65096024 17.68368272 7 19.8125 C8.3712961 22.81221021 8.46681152 24.73231936 8 28 C5.84909549 31.33761045 4.79587201 32.73470933 1 34 C-6.49993573 34.66885392 -11.8358333 34.48303033 -18 30 C-17.505 28.515 -17.505 28.515 -17 27 C-12.25 28.875 -12.25 28.875 -10 30 C-8.16871229 30.09608608 -6.33380041 30.12982579 -4.5 30.125 C-3.5203125 30.12757813 -2.540625 30.13015625 -1.53125 30.1328125 C0.99431054 30.16940053 0.99431054 30.16940053 3 29 C3 26.69 3 24.38 3 22 C1.46279297 21.54560547 1.46279297 21.54560547 -0.10546875 21.08203125 C-1.46640028 20.65967319 -2.82706353 20.23644997 -4.1875 19.8125 C-4.86103516 19.61591797 -5.53457031 19.41933594 -6.22851562 19.21679688 C-10.92882903 17.7264536 -13.79931927 15.92007183 -17 12 C-17.625 9 -17.625 9 -17 6 C-11.78695682 -0.17334061 -7.77292976 -0.71311282 0 0 Z " fill="#1A1A1A" transform="translate(258,362)"/>
<path d="M0 0 C0.99 0 1.98 0 3 0 C3.01458252 0.63502441 3.02916504 1.27004883 3.04418945 1.92431641 C3.11905089 4.82513081 3.21558426 7.72484206 3.3125 10.625 C3.33505859 11.62402344 3.35761719 12.62304688 3.38085938 13.65234375 C3.61876387 20.18390349 4.16994918 25.16994918 9 30 C12.05610339 30.57039258 14.94031349 30.5337277 18 30 C20.75569447 27.81840855 22.43588747 26.12822506 24 23 C24.15266612 21.26131256 24.24932596 19.51752499 24.31640625 17.7734375 C24.35830078 16.7421875 24.40019531 15.7109375 24.44335938 14.6484375 C24.48267578 13.56820313 24.52199219 12.48796875 24.5625 11.375 C24.60568359 10.28703125 24.64886719 9.1990625 24.69335938 8.078125 C24.7996453 5.3855483 24.90168057 2.69287747 25 0 C26.32 0 27.64 0 29 0 C29.117791 3.31219232 29.18777155 6.62383492 29.25 9.9375 C29.30027344 11.32678711 29.30027344 11.32678711 29.3515625 12.74414062 C29.46013171 20.47969715 27.83231871 26.48105858 22.9375 32.5625 C18.3455909 34.80960445 14.00933995 34.72087418 9 34 C3.92139703 31.64207719 1.93923574 29.18619818 0 24 C-0.35919821 19.86737664 -0.28268252 15.76910042 -0.1875 11.625 C-0.17396484 10.50738281 -0.16042969 9.38976562 -0.14648438 8.23828125 C-0.11127164 5.49168789 -0.06202096 2.74609711 0 0 Z " fill="#242424" transform="translate(142,362)"/>
<path d="M0 0 C0.99 0 1.98 0 3 0 C3.33 5.94 3.66 11.88 4 18 C6.0625 15.958125 8.125 13.91625 10.25 11.8125 C10.89227539 11.17932861 11.53455078 10.54615723 12.19628906 9.89379883 C15.35994913 6.74539598 18.29113838 3.5604097 21 0 C22.32 0.33 23.64 0.66 25 1 C21.04 5.29 17.08 9.58 13 14 C14.83001854 18.57504634 16.37065755 20.90990711 19.5 24.5625 C22.09504152 27.59987815 24.40638632 30.31909884 26 34 C22.29042558 33.77716337 21.18084617 33.20127398 18.6484375 30.3828125 C17.89820313 29.30773437 17.14796875 28.23265625 16.375 27.125 C13.01639949 22.2805033 13.01639949 22.2805033 9 18 C5.75779627 20.41086944 4.25085708 21.74218142 3.4453125 25.78125 C3.21191921 28.52538928 3.05303957 31.24676404 3 34 C2.01 34 1.02 34 0 34 C0 22.78 0 11.56 0 0 Z " fill="#0B0B0B" transform="translate(363,362)"/>
<path d="M0 0 C2.76050753 1.44001733 4.55262598 2.56770861 5.76953125 5.48828125 C5.79015625 6.06578125 5.81078125 6.64328125 5.83203125 7.23828125 C3.27189218 6.76418142 1.74879318 6.18047703 -0.41796875 4.67578125 C-4.08641841 2.75818256 -7.10513909 2.48986526 -11.16796875 3.23828125 C-14.74444525 5.41526694 -16.59096823 7.40644666 -18.16796875 11.23828125 C-18.88440315 16.28664456 -18.71498421 20.18197554 -16.35546875 24.73828125 C-14.1672452 27.23910817 -12.50087618 28.99288163 -9.15234375 29.609375 C-2.85490976 29.7965365 0.04819549 28.30963084 4.83203125 24.23828125 C5.49203125 24.89828125 6.15203125 25.55828125 6.83203125 26.23828125 C3.71534751 30.46806633 1.55735672 32.76007973 -3.68359375 33.6796875 C-9.11244583 33.92010809 -12.48053658 33.62476443 -16.73046875 30.05078125 C-20.34378201 26.60273388 -21.89809253 23.32343018 -22.5390625 18.37109375 C-22.67014212 12.43395814 -22.60116293 8.16046073 -18.57421875 3.57421875 C-13.29389815 -1.44208582 -6.9287745 -2.43443428 0 0 Z " fill="#141414" transform="translate(351.16796875,362.76171875)"/>
<path d="M0 0 C1.84515343 0.69193254 3.64825279 1.49450609 5.4375 2.3203125 C2.27605561 7.06247908 -1.1856901 9.61658739 -6.5625 11.3203125 C-15.04559975 12.45139247 -15.04559975 12.45139247 -18.359375 9.98046875 C-19.5625 8.3203125 -19.5625 8.3203125 -19.5 5.3203125 C-16.88874952 -3.03568904 -7.07453158 -1.87647636 0 0 Z " fill="#F6F6F6" transform="translate(183.5625,298.6796875)"/>
<path d="M0 0 C6.40212967 5.37190191 13.01033259 11.16288994 17.0625 18.5625 C17.0625 19.5525 17.0625 20.5425 17.0625 21.5625 C16.4025 21.5625 15.7425 21.5625 15.0625 21.5625 C13.81750413 19.93833273 12.64207531 18.26061602 11.5 16.5625 C-0.35902576 -0.03588551 -18.30546487 -8.56951046 -37.9375 -12.4375 C-42.35410739 -12.88375018 -46.75083868 -13.03333344 -51.1875 -13.125 C-52.89486328 -13.17624023 -52.89486328 -13.17624023 -54.63671875 -13.22851562 C-57.40354702 -13.30989293 -60.1701023 -13.37939107 -62.9375 -13.4375 C-62.9375 -13.7675 -62.9375 -14.0975 -62.9375 -14.4375 C-40.69391184 -18.86462191 -18.11852449 -13.52598182 0 0 Z " fill="#252525" transform="translate(284.9375,174.4375)"/>
<path d="M0 0 C7.26 0 14.52 0 22 0 C22 0.99 22 1.98 22 3 C15.73 3 9.46 3 3 3 C3 7.29 3 11.58 3 16 C8.28 16 13.56 16 19 16 C19 16.66 19 17.32 19 18 C13.72 18 8.44 18 3 18 C3 23.28 3 28.56 3 34 C2.01 34 1.02 34 0 34 C0 22.78 0 11.56 0 0 Z " fill="#050505" transform="translate(115,362)"/>
<path d="M0 0 C8.91 0 17.82 0 27 0 C27 0.99 27 1.98 27 3 C23.04 3 19.08 3 15 3 C15 13.23 15 23.46 15 34 C14.01 34 13.02 34 12 34 C12 23.77 12 13.54 12 3 C8.04 3 4.08 3 0 3 C0 2.01 0 1.02 0 0 Z " fill="#050505" transform="translate(268,362)"/>
<path d="M0 0 C0.94746094 -0.00515625 1.89492187 -0.0103125 2.87109375 -0.015625 C5.65179236 0.2588126 7.24201004 0.72000662 9.5625 2.25 C10.5525 3.735 10.5525 3.735 11.5625 5.25 C10.86253906 5.09144531 10.16257813 4.93289063 9.44140625 4.76953125 C6.42279106 4.22478794 3.56591548 4.01114399 0.5 3.9375 C-0.52222656 3.90011719 -1.54445312 3.86273438 -2.59765625 3.82421875 C-6.14320261 4.35580686 -7.30613328 5.41847417 -9.4375 8.25 C-9.24551478 11.5821498 -9.24551478 11.5821498 -7.4375 14.25 C-0.78448657 15.17402964 3.98527423 14.06968062 9.75 10.734375 C11.76889246 9.08097169 12.58033793 7.64402005 13.5625 5.25 C14.2225 5.25 14.8825 5.25 15.5625 5.25 C15.6875 7.875 15.6875 7.875 14.5625 11.25 C7.52905541 16.62706221 1.3897661 19.22155444 -7.4375 18.25 C-11.38225749 16.23736863 -12.1867339 15.01622975 -13.5625 10.8125 C-13.4375 7.25 -13.4375 7.25 -11.1875 4.4375 C-7.15340413 1.2285601 -5.12947961 -0.02783978 0 0 Z " fill="#2E2E2E" transform="translate(174.4375,294.75)"/>
<path d="M0 0 C0.99 0 1.98 0 3 0 C3 10.23 3 20.46 3 31 C9.6 31 16.2 31 23 31 C23 31.99 23 32.98 23 34 C15.41 34 7.82 34 0 34 C0 22.78 0 11.56 0 0 Z " fill="#0B0B0B" transform="translate(205,362)"/>
<path d="M0 0 C0.99 0 1.98 0 3 0 C3 10.23 3 20.46 3 31 C9.6 31 16.2 31 23 31 C23 31.99 23 32.98 23 34 C15.41 34 7.82 34 0 34 C0 22.78 0 11.56 0 0 Z " fill="#0B0B0B" transform="translate(178,362)"/>
<path d="M0 0 C0.33 0 0.66 0 1 0 C1.33 16.83 1.66 33.66 2 51 C4.97 45.39 7.94 39.78 11 34 C11.495 33.505 11.495 33.505 12 33 C12.15980437 30.55391002 12.25929447 28.13268942 12.31640625 25.68359375 C12.33718735 24.95253922 12.35796844 24.22148468 12.37937927 23.46827698 C12.44495024 21.12478344 12.50379432 18.78117461 12.5625 16.4375 C12.60567808 14.85220145 12.64929213 13.26691471 12.69335938 11.68164062 C12.8006392 7.78787963 12.9018849 3.89400228 13 0 C13.33 0 13.66 0 14 0 C16.22278536 21.10876958 16.75597055 37.37227452 3 55 C2.34 55.66 1.68 56.32 1 57 C-0.28566729 54.42866541 -0.12009778 52.602829 -0.11352539 49.72412109 C-0.11344986 48.6231308 -0.11337433 47.5221405 -0.11329651 46.38778687 C-0.10813522 45.19505157 -0.10297394 44.00231628 -0.09765625 42.7734375 C-0.0962413 41.55548492 -0.09482635 40.33753235 -0.09336853 39.08267212 C-0.08775639 35.1800901 -0.07520179 31.27756477 -0.0625 27.375 C-0.05748657 24.73437583 -0.05292339 22.09375076 -0.04882812 19.453125 C-0.03778301 12.96873055 -0.02103302 6.48436932 0 0 Z " fill="#B9B9B9" transform="translate(224,185)"/>
<path d="M0 0 C0.99 0 1.98 0 3 0 C3.01458252 0.63502441 3.02916504 1.27004883 3.04418945 1.92431641 C3.11905089 4.82513081 3.21558426 7.72484206 3.3125 10.625 C3.33505859 11.62402344 3.35761719 12.62304688 3.38085938 13.65234375 C3.61876387 20.18390349 4.16994918 25.16994918 9 30 C11.20250992 30.46006346 11.20250992 30.46006346 13.625 30.625 C14.44226563 30.69976562 15.25953125 30.77453125 16.1015625 30.8515625 C16.72804687 30.90054687 17.35453125 30.94953125 18 31 C17.67 31.99 17.34 32.98 17 34 C12.3926927 34.31774533 9.8746984 34.42909733 5.6875 32.375 C1.97602655 29.09509323 0.19959854 26.30350285 -0.23706055 21.26416016 C-0.29509942 18.04591745 -0.26140865 14.84286878 -0.1875 11.625 C-0.17396484 10.50738281 -0.16042969 9.38976562 -0.14648438 8.23828125 C-0.11127164 5.49168789 -0.06202096 2.74609711 0 0 Z " fill="#0B0B0B" transform="translate(142,362)"/>
<path d="M0 0 C1.97885999 2.96828999 3.25864997 5.77447054 4.625 9.0625 C5.07101562 10.12597656 5.51703125 11.18945312 5.9765625 12.28515625 C7 15 7 15 7 17 C2.71 17 -1.58 17 -6 17 C-5.19980115 12.19880692 -4.45116558 9.35886096 -2.4375 5.125 C-1.75494141 3.67480469 -1.75494141 3.67480469 -1.05859375 2.1953125 C-0.70925781 1.47085937 -0.35992187 0.74640625 0 0 Z " fill="#EAEAEA" transform="translate(311,366)"/>
<path d="M0 0 C0.66 0.99 1.32 1.98 2 3 C1.09121094 3.84820312 0.18242187 4.69640625 -0.75390625 5.5703125 C-1.35380371 6.13024902 -1.95370117 6.69018555 -2.57177734 7.26708984 C-3.91442127 8.52015831 -5.25719768 9.77308485 -6.60009766 11.02587891 C-10.07630448 14.26920656 -13.55054611 17.51457314 -17.01953125 20.765625 C-23.0710486 26.43303951 -29.12648591 32.08225432 -35.36328125 37.546875 C-36.61334802 38.65671949 -37.81796326 39.81796326 -39 41 C-39.495 39.515 -39.495 39.515 -40 38 C-37.58447554 35.72794921 -35.16753793 33.45740825 -32.75 31.1875 C-32.02071289 30.50260498 -31.29142578 29.81770996 -30.54003906 29.11206055 C-26.30752274 25.14349663 -22.04777139 21.21021288 -17.75 17.3125 C-11.63523951 11.73530087 -5.8040303 5.89664781 0 0 Z " fill="#2F2F2F" transform="translate(302,198)"/>
<path d="M0 0 C0.99 0.33 1.98 0.66 3 1 C3.33 5.95 3.66 10.9 4 16 C3.34 16.33 2.68 16.66 2 17 C1.505 10.565 1.505 10.565 1 4 C-9.35296733 17.67726066 -10.41608772 29.24591065 -10.125 46.0625 C-10.12305325 48.29752671 -10.12562753 50.53256212 -10.1328125 52.76757812 C-10.14054867 58.17959207 -10.09292018 63.58882562 -10 69 C-10.33 69 -10.66 69 -11 69 C-11.33 54.48 -11.66 39.96 -12 25 C-12.99 25.66 -13.98 26.32 -15 27 C-13.40189533 22.51499656 -11.10425687 18.65986903 -8.625 14.625 C-7.84561321 13.34680567 -7.06696357 12.06816157 -6.2890625 10.7890625 C-5.72106934 9.85562012 -5.72106934 9.85562012 -5.14160156 8.90332031 C-3.37813656 5.96320629 -1.68846548 2.98372667 0 0 Z " fill="#C1C1C1" transform="translate(235,242)"/>
<path d="M0 0 C3.0625 0.3125 3.0625 0.3125 4.9375 1.4375 C6.59104531 4.19340884 6.45615568 6.16325452 6.0625 9.3125 C5 11.25 5 11.25 3.0625 12.3125 C-0.5625 12.125 -0.5625 12.125 -3.9375 11.3125 C-5.44412097 8.29925805 -5.11520373 5.62963623 -4.9375 2.3125 C-2.9375 0.3125 -2.9375 0.3125 0 0 Z " fill="#B2B2B2" transform="translate(261.9375,411.6875)"/>
<path d="M0 0 C6.3782235 -0.36103152 6.3782235 -0.36103152 8.9375 1.125 C10.50422245 3.88980433 10.38976435 5.88188517 10 9 C8.9375 10.875 8.9375 10.875 7 12 C3.3125 12.1875 3.3125 12.1875 0 12 C0 8.04 0 4.08 0 0 Z " fill="#AAAAAA" transform="translate(198,412)"/>
<path d="M0 0 C1.32 0 2.64 0 4 0 C4.67119549 1.4562545 5.33681807 2.91507867 6 4.375 C6.556875 5.59316406 6.556875 5.59316406 7.125 6.8359375 C8 9 8 9 8 11 C7.01 11.33 6.02 11.66 5 12 C4.01 9.69 3.02 7.38 2 5 C0.02 10.28 -1.96 15.56 -4 21 C-4.99 20.67 -5.98 20.34 -7 20 C-6.29937517 15.43263559 -4.68729793 11.4300495 -2.9375 7.1875 C-2.51500977 6.14819336 -2.51500977 6.14819336 -2.08398438 5.08789062 C-1.39325027 3.39032376 -0.69716272 1.69493688 0 0 Z " fill="#181818" transform="translate(309,362)"/>
<path d="M0 0 C4.07611172 1.06333349 7.91639627 2.33104965 11.8125 3.9375 C16.78377442 5.97640978 21.83035554 7.54809985 27 9 C27 9.99 27 10.98 27 12 C20.85568842 11.45956664 15.81989542 9.50854413 10.1875 7.0625 C9.32962891 6.70220703 8.47175781 6.34191406 7.58789062 5.97070312 C1.27271849 3.27271849 1.27271849 3.27271849 -1 1 C-0.67 0.67 -0.34 0.34 0 0 Z " fill="#333333" transform="translate(195,301)"/>
<path d="M0 0 C2.61640542 0.95934865 3.78938043 1.64562422 5.23046875 4.0703125 C6.27434394 8.04445662 6.32930018 11.78247514 6.3125 15.875 C6.32861328 16.65230469 6.34472656 17.42960937 6.36132812 18.23046875 C6.36580979 23.56365128 5.4065899 27.23761894 3 32 C2.67 32 2.34 32 2 32 C2.10828125 31.00033203 2.10828125 31.00033203 2.21875 29.98046875 C3.29490571 19.29364472 3.72305776 10.21624777 0 0 Z " fill="#141414" transform="translate(214,215)"/>
<path d="M0 0 C3.375 -0.125 3.375 -0.125 7 0 C7.66 0.66 8.32 1.32 9 2 C8.70241581 4.3381615 8.36760731 6.67182036 8 9 C8.33 9.99 8.66 10.98 9 12 C8.34 12 7.68 12 7 12 C6.34 11.01 5.68 10.02 5 9 C2.94074861 8.27617533 2.94074861 8.27617533 1 8 C0.67 9.32 0.34 10.64 0 12 C0 8.04 0 4.08 0 0 Z " fill="#414141" transform="translate(294,412)"/>
<path d="M0 0 C0.66 0 1.32 0 2 0 C3.734375 2.08984375 3.734375 2.08984375 5.75 4.9375 C6.45640625 5.93265625 7.1628125 6.9278125 7.890625 7.953125 C10.64697143 11.93451428 13.35567023 15.94335774 16 20 C12.34212876 19.76775421 11.19608963 19.21559939 8.68359375 16.453125 C7.94238281 15.39609375 7.20117188 14.3390625 6.4375 13.25 C5.69371094 12.20328125 4.94992187 11.1565625 4.18359375 10.078125 C3.46300781 9.06234375 2.74242187 8.0465625 2 7 C0.67913711 5.32343304 -0.64993419 3.65314181 -2 2 C-1.34 1.34 -0.68 0.68 0 0 Z " fill="#151515" transform="translate(373,376)"/>
<path d="M0 0 C-0.33 0.99 -0.66 1.98 -1 3 C-1.88300781 3.10957031 -2.76601562 3.21914062 -3.67578125 3.33203125 C-11.32736478 4.34292789 -18.61868591 5.74041406 -26 8 C-26 7.34 -26 6.68 -26 6 C-26.66 5.67 -27.32 5.34 -28 5 C-25.79290017 4.34996375 -23.58426108 3.70515255 -21.375 3.0625 C-20.14523438 2.70285156 -18.91546875 2.34320313 -17.6484375 1.97265625 C-11.60804883 0.36231709 -6.20601584 -0.10700027 0 0 Z " fill="#2C2C2C" transform="translate(228,159)"/>
<path d="M0 0 C3.375 -0.125 3.375 -0.125 7 0 C7.66 0.66 8.32 1.32 9 2 C8.625 4.625 8.625 4.625 8 7 C5.69 7.33 3.38 7.66 1 8 C0.67 9.32 0.34 10.64 0 12 C0 8.04 0 4.08 0 0 Z " fill="#404040" transform="translate(271,412)"/>
<path d="M0 0 C5.5656753 1.19210235 11.22435559 1.8592855 16.86328125 2.61328125 C11.62701883 5.62083701 6.06508754 5.36408303 0.28125 4.0078125 C-5.62042728 2.12957272 -5.62042728 2.12957272 -8.13671875 -0.38671875 C-5.20829018 -1.85093304 -3.05514322 -0.73503446 0 0 Z " fill="#272727" transform="translate(180.13671875,264.38671875)"/>
<path d="M0 0 C0.33 0.99 0.66 1.98 1 3 C0.01 3.99 -0.98 4.98 -2 6 C8.23 6 18.46 6 29 6 C29 6.66 29 7.32 29 8 C15.8 8 2.6 8 -11 8 C-11 7.34 -11 6.68 -11 6 C-9.741875 5.7525 -8.48375 5.505 -7.1875 5.25 C-4.16442273 4.51162006 -3.1940517 4.20617994 -1 1.875 C-0.67 1.25625 -0.34 0.6375 0 0 Z " fill="#242424" transform="translate(222,315)"/>
<path d="M0 0 C0 3 0 3 -2.16015625 5.48828125 C-3.11935516 6.43809104 -4.08733977 7.37908491 -5.0625 8.3125 C-5.56257568 8.80161865 -6.06265137 9.2907373 -6.57788086 9.79467773 C-10.25654639 13.36432821 -14.05709752 16.72822986 -18 20 C-18.66 20.66 -19.32 21.32 -20 22 C-20.33 21.01 -20.66 20.02 -21 19 C-18.44038523 16.58026226 -15.87679983 14.16477147 -13.3125 11.75 C-12.59126953 11.06808594 -11.87003906 10.38617188 -11.12695312 9.68359375 C-7.52652647 6.29689105 -3.93037062 3.0078576 0 0 Z " fill="#252525" transform="translate(283,217)"/>
<path d="M0 0 C0.88494141 -0.00386719 1.76988281 -0.00773438 2.68164062 -0.01171875 C6.89154523 -0.00540231 10.83499181 0.0503305 14.9375 1.125 C12.9375 3.125 12.9375 3.125 10.04833984 3.26025391 C8.24163818 3.18170166 8.24163818 3.18170166 6.3984375 3.1015625 C5.09648437 3.05 3.79453125 2.9984375 2.453125 2.9453125 C1.07290621 2.88043042 -0.30730202 2.81532333 -1.6875 2.75 C-3.07548149 2.69176301 -4.4635025 2.63445967 -5.8515625 2.578125 C-9.25570926 2.43628555 -12.65915846 2.28483765 -16.0625 2.125 C-16.0625 1.795 -16.0625 1.465 -16.0625 1.125 C-10.68084524 0.0078855 -5.46799251 -0.02399997 0 0 Z " fill="#0B0B0B" transform="translate(238.0625,158.875)"/>
<path d="M0 0 C0.66 0 1.32 0 2 0 C2.125 2.625 2.125 2.625 1 6 C-3.81884425 10.3843583 -8.62277956 12.375 -15.125 12.375 C-16.75205 12.28035166 -18.37872066 12.16644313 -20 12 C-20 11.67 -20 11.34 -20 11 C-19.29875 10.84144531 -18.5975 10.68289063 -17.875 10.51953125 C-11.68396409 8.99700747 -5.88166787 7.28124882 -1 3 C-0.67 2.01 -0.34 1.02 0 0 Z " fill="#2E2E2E" transform="translate(188,300)"/>
<path d="M0 0 C0.66 0.33 1.32 0.66 2 1 C0.72867494 4.81397517 -0.986462 5.83673229 -4.125 8.3125 C-5.11371094 9.10140625 -6.10242188 9.8903125 -7.12109375 10.703125 C-8.54615234 11.84007812 -8.54615234 11.84007812 -10 13 C-12.35281869 14.97878085 -14.67672418 16.98649429 -17 19 C-16.43263362 15.3491207 -15.10048851 13.79257218 -12.40234375 11.328125 C-11.68369141 10.66425781 -10.96503906 10.00039062 -10.22460938 9.31640625 C-9.46986328 8.63449219 -8.71511719 7.95257813 -7.9375 7.25 C-7.17888672 6.55261719 -6.42027344 5.85523438 -5.63867188 5.13671875 C-3.76577219 3.41694923 -1.88616736 1.70518911 0 0 Z " fill="#303030" transform="translate(254,243)"/>
<path d="M0 0 C0.33 0 0.66 0 1 0 C1 13.53 1 27.06 1 41 C1.66 41 2.32 41 3 41 C2.01 43.475 2.01 43.475 1 46 C0.67 46 0.34 46 0 46 C0 30.82 0 15.64 0 0 Z " fill="#161616" transform="translate(225,191)"/>
<path d="M0 0 C5.65356302 0.95465867 8.91682206 5.3702156 12.33984375 9.69140625 C14.20445843 12.33902639 15 13.70051698 15 17 C14.34 17 13.68 17 13 17 C11.66380379 15.34229079 10.40537861 13.62147984 9.1875 11.875 C6.27016337 7.75671969 3.29990489 3.81551503 0 0 Z " fill="#1B1B1B" transform="translate(287,179)"/>
<path d="M0 0 C6.13053511 -0.32712342 10.62669111 -0.39366878 16 3 C15.67 3.99 15.34 4.98 15 6 C14.46890625 5.68289063 13.9378125 5.36578125 13.390625 5.0390625 C10.45464152 3.7629651 7.93825671 3.58292979 4.75 3.375 C3.67234375 3.30023438 2.5946875 3.22546875 1.484375 3.1484375 C0.66453125 3.09945313 -0.1553125 3.05046875 -1 3 C-0.67 2.01 -0.34 1.02 0 0 Z " fill="#131313" transform="translate(248,362)"/>
<path d="M0 0 C0.99 0.66 1.98 1.32 3 2 C1.35821735 6.77609498 -1.26546702 10.79382904 -4 15 C-5.32 14.67 -6.64 14.34 -8 14 C-7.59007812 13.40832031 -7.18015625 12.81664062 -6.7578125 12.20703125 C-5.94957031 11.02173828 -5.94957031 11.02173828 -5.125 9.8125 C-4.59132812 9.03519531 -4.05765625 8.25789062 -3.5078125 7.45703125 C-2.01984561 5.0323391 -0.97571922 2.6666501 0 0 Z " fill="#303030" transform="translate(215,244)"/>
<path d="M0 0 C2.64 0 5.28 0 8 0 C8 0.33 8 0.66 8 1 C6.02 1 4.04 1 2 1 C2 2.32 2 3.64 2 5 C3.98 5 5.96 5 8 5 C8 5.33 8 5.66 8 6 C6.02 6 4.04 6 2 6 C2 7.65 2 9.3 2 11 C4.31 11 6.62 11 9 11 C9 11.33 9 11.66 9 12 C6.03 12 3.06 12 0 12 C0 8.04 0 4.08 0 0 Z " fill="#4A4A4A" transform="translate(282,412)"/>
<path d="M0 0 C3 2 3 2 4.3125 4.5625 C5.80162574 7.30871471 5.80162574 7.30871471 8.9375 7.625 C9.948125 7.74875 10.95875 7.8725 12 8 C14.19140625 9.5234375 14.19140625 9.5234375 16 11 C7.20500034 11.61479609 7.20500034 11.61479609 2.9375 9.4375 C0.46427529 6.32602376 0.22592373 3.91601134 0 0 Z " fill="#3C3C3C" transform="translate(161,302)"/>
<path d="M0 0 C0 0.66 0 1.32 0 2 C-1.03125 2.5775 -2.0625 3.155 -3.125 3.75 C-6.52656807 5.68979442 -9.76699717 7.79209563 -13 10 C-13.66 9.67 -14.32 9.34 -15 9 C-13.45198822 7.48505255 -11.88597448 5.98848389 -10.3125 4.5 C-9.44238281 3.6646875 -8.57226562 2.829375 -7.67578125 1.96875 C-4.7506425 -0.18346888 -3.53366794 -0.45842179 0 0 Z " fill="#272727" transform="translate(275,178)"/>
<path d="M0 0 C4.76350585 0.71452588 9.34201396 1.79534844 14 3 C14 3.99 14 4.98 14 6 C8.29290936 5.53411505 4.84060277 4.06242216 0 1 C0 0.67 0 0.34 0 0 Z " fill="#262626" transform="translate(208,307)"/>
<path d="M0 0 C0 0.66 0 1.32 0 2 C-5.445 3.485 -5.445 3.485 -11 5 C-11 4.34 -11 3.68 -11 3 C-11.66 2.67 -12.32 2.34 -13 2 C-11.5882217 1.46605821 -10.17029756 0.94834896 -8.75 0.4375 C-7.96109375 0.14746094 -7.1721875 -0.14257812 -6.359375 -0.44140625 C-3.80896548 -1.04522837 -2.44677771 -0.8473932 0 0 Z " fill="#3B3B3B" transform="translate(213,162)"/>
<path d="M0 0 C0.99 0.33 1.98 0.66 3 1 C0.03 5.95 0.03 5.95 -3 11 C-3.99 10.67 -4.98 10.34 -6 10 C-4.6302836 6.00499382 -2.74277578 3.19990508 0 0 Z " fill="#2D2D2D" transform="translate(168,187)"/>
<path d="M0 0 C0 0.66 0 1.32 0 2 C-1.49609375 3.4375 -1.49609375 3.4375 -3.4375 5 C-6.15188238 7.14525044 -6.15188238 7.14525044 -8 10 C-8.99 9.67 -9.98 9.34 -11 9 C-5.4 0 -5.4 0 0 0 Z " fill="#1C1C1C" transform="translate(180,178)"/>
<path d="M0 0 C1.98 0 3.96 0 6 0 C6 1.65 6 3.3 6 5 C4.02 5 2.04 5 0 5 C0 3.35 0 1.7 0 0 Z " fill="#F0F0F0" transform="translate(295,413)"/>
<path d="M0 0 C1.98 0 3.96 0 6 0 C6 1.65 6 3.3 6 5 C4.02 5 2.04 5 0 5 C0 3.35 0 1.7 0 0 Z " fill="#F0F0F0" transform="translate(272,413)"/>
<path d="M0 0 C0.66 0.33 1.32 0.66 2 1 C-1.96 6.94 -1.96 6.94 -6 13 C-6.66 12.34 -7.32 11.68 -8 11 C-5.36 7.37 -2.72 3.74 0 0 Z " fill="#CCCCCC" transform="translate(293,274)"/>
<path d="M0 0 C0.33 0 0.66 0 1 0 C1.33 6.6 1.66 13.2 2 20 C1.01 20 0.02 20 -1 20 C-0.67 13.4 -0.34 6.8 0 0 Z " fill="#545454" transform="translate(156,221)"/>
<path d="M0 0 C0.99 0.66 1.98 1.32 3 2 C-0.625 6.875 -0.625 6.875 -4 8 C-4.33 7.34 -4.66 6.68 -5 6 C-3.35 4.02 -1.7 2.04 0 0 Z " fill="#1F1F1F" transform="translate(355,387)"/>
<path d="M0 0 C4 2 4 2 5.25 5.625 C5.4975 6.73875 5.745 7.8525 6 9 C5.01 9.33 4.02 9.66 3 10 C2.01 6.7 1.02 3.4 0 0 Z " fill="#232323" transform="translate(214,215)"/>
<path d="M0 0 C0.66 0 1.32 0 2 0 C0.68938409 4.23429756 -0.94356259 8.07407404 -3 12 C-3.66 10.68 -4.32 9.36 -5 8 C-4.34 8 -3.68 8 -3 8 C-2.690625 7.05125 -2.38125 6.1025 -2.0625 5.125 C-1 2 -1 2 0 0 Z " fill="#D6D6D6" transform="translate(229,230)"/>
<path d="M0 0 C-0.99 1.485 -0.99 1.485 -2 3 C-3.9453125 3.29296875 -3.9453125 3.29296875 -6.125 3.1875 C-7.40375 3.125625 -8.6825 3.06375 -10 3 C-10.33 2.34 -10.66 1.68 -11 1 C-7.27569643 0.30710631 -3.78916254 -0.11144596 0 0 Z " fill="#1A1A1A" transform="translate(251,312)"/>
<path d="M0 0 C3.18666175 0.27953173 4.91798366 0.62000954 7.5625 2.3125 C4.40743858 3.24869813 1.59663498 3.4182123 -1.6875 3.375 C-2.57953125 3.36597656 -3.4715625 3.35695313 -4.390625 3.34765625 C-5.06609375 3.33605469 -5.7415625 3.32445312 -6.4375 3.3125 C-4.13464528 0.65966736 -3.72314367 0.33846761 0 0 Z " fill="#454545" transform="translate(189.4375,265.6875)"/>
<path d="M0 0 C0.66 0.99 1.32 1.98 2 3 C1.21718695 4.33855056 0.42348123 5.67073644 -0.375 7 C-0.81585938 7.7425 -1.25671875 8.485 -1.7109375 9.25 C-2.13632813 9.8275 -2.56171875 10.405 -3 11 C-3.66 11 -4.32 11 -5 11 C-3.55049545 7.2089881 -1.84827434 3.6125362 0 0 Z " fill="#C3C2C3" transform="translate(235,219)"/>
<path d="M0 0 C0.66 0.99 1.32 1.98 2 3 C0.25 5.0625 0.25 5.0625 -2 7 C-3.32 6.67 -4.64 6.34 -6 6 C-4.02 4.02 -2.04 2.04 0 0 Z " fill="#3D3D3D" transform="translate(302,198)"/>
<path d="M0 0 C3.34373475 0.55728913 6.03312999 1.35173889 9 3 C9 3.66 9 4.32 9 5 C5.65626525 4.44271087 2.96687001 3.64826111 0 2 C0 1.34 0 0.68 0 0 Z " fill="#1C1C1C" transform="translate(266,165)"/>
<path d="M0 0 C0 3 0 3 -1.125 4.4375 C-3.61392933 6.51160777 -6.27885724 8.24637467 -9 10 C-7.61811547 6.78956118 -6.07578097 4.95063635 -3.375 2.75 C-2.74335938 2.22921875 -2.11171875 1.7084375 -1.4609375 1.171875 C-0.73777344 0.59179688 -0.73777344 0.59179688 0 0 Z " fill="#171717" transform="translate(264,185)"/>
<path d="M0 0 C-0.33 0.99 -0.66 1.98 -1 3 C-4.63 3 -8.26 3 -12 3 C-12 2.67 -12 2.34 -12 2 C-10.56342755 1.66269158 -9.12569907 1.33030409 -7.6875 1 C-6.88699219 0.814375 -6.08648437 0.62875 -5.26171875 0.4375 C-3 0 -3 0 0 0 Z " fill="#101010" transform="translate(180,309)"/>
<path d="M0 0 C0.99 0.33 1.98 0.66 3 1 C1.35 2.65 -0.3 4.3 -2 6 C-2.99 5.34 -3.98 4.68 -5 4 C-2.6875 1.9375 -2.6875 1.9375 0 0 Z " fill="#282828" transform="translate(183,173)"/>
<path d="M0 0 C1.2077558 3.62326739 0.54311128 4.64146369 -1 8 C-1.66 8 -2.32 8 -3 8 C-2.74438677 5.6568787 -2.40729228 3.32156597 -2 1 C-1.34 0.67 -0.68 0.34 0 0 Z " fill="#202020" transform="translate(163,196)"/>
<path d="M0 0 C3.25543229 0.34879632 4.01873107 1.02133261 6.25 3.5625 C6.8275 4.366875 7.405 5.17125 8 6 C5 6 5 6 3.61328125 4.6875 C2.40885417 3.125 1.20442708 1.5625 0 0 Z " fill="#0F0F0F" transform="translate(287,179)"/>
<path d="M0 0 C0.66 0.33 1.32 0.66 2 1 C1.34 2.98 0.68 4.96 0 7 C-0.99 6.67 -1.98 6.34 -3 6 C-2.625 3.5625 -2.625 3.5625 -2 1 C-1.34 0.67 -0.68 0.34 0 0 Z " fill="#212121" transform="translate(305,376)"/>
<path d="M0 0 C0.99 0 1.98 0 3 0 C3.33 1.98 3.66 3.96 4 6 C3.01 6 2.02 6 1 6 C0.67 4.02 0.34 2.04 0 0 Z " fill="#2E2E2E" transform="translate(156,241)"/>
<path d="M0 0 C2.31 0.66 4.62 1.32 7 2 C5.02 2.99 5.02 2.99 3 4 C1.68 3.01 0.36 2.02 -1 1 C-0.67 0.67 -0.34 0.34 0 0 Z " fill="#232323" transform="translate(195,301)"/>
<path d="M0 0 C0.66 0.33 1.32 0.66 2 1 C0.515 4.465 0.515 4.465 -1 8 C-1.33 8 -1.66 8 -2 8 C-2.125 5.125 -2.125 5.125 -2 2 C-1.34 1.34 -0.68 0.68 0 0 Z " fill="#242424" transform="translate(164,298)"/>
<path d="M0 0 C0.99 0 1.98 0 3 0 C3.33 2.31 3.66 4.62 4 7 C1.49962266 4.82575883 0.56371414 3.26954202 0 0 Z " fill="#1E1E1E" transform="translate(158,247)"/>
<path d="M0 0 C0.33 0.99 0.66 1.98 1 3 C-0.65 4.65 -2.3 6.3 -4 8 C-4.33 7.01 -4.66 6.02 -5 5 C-3.35 3.35 -1.7 1.7 0 0 Z " fill="#343434" transform="translate(267,231)"/>
<path d="M0 0 C0.99 0.33 1.98 0.66 3 1 C1.37660195 2.70884005 -0.29319053 4.37446717 -2 6 C-2.66 6 -3.32 6 -4 6 C-2.84826645 3.53199953 -1.95216435 1.95216435 0 0 Z " fill="#212121" transform="translate(295,205)"/>
<path d="M0 0 C3.125 0.375 3.125 0.375 6 1 C5.67 1.99 5.34 2.98 5 4 C2.69 3.34 0.38 2.68 -2 2 C-1.34 1.34 -0.68 0.68 0 0 Z " fill="#2F2F2F" transform="translate(261,163)"/>
</svg>
